<svg id="svg" version="1.1" xmlns="http://www.w3.org/2000/svg" xmlns:xlink="http://www.w3.org/1999/xlink" width="400" height="400" viewBox="0, 0, 400,400"><g id="svgg"><path id="path0" d="M165.585 76.072 C 165.358 76.664,144.962 132.771,120.261 200.754 C 95.560 268.737,75.260 324.504,75.150 324.682 C 75.041 324.859,88.968 324.960,106.099 324.905 L 137.248 324.805 160.752 260.156 C 173.679 224.600,186.808 188.652,189.927 180.273 C 193.047 171.895,196.535 162.359,197.679 159.084 L 199.759 153.130 231.060 153.030 L 262.360 152.930 248.225 114.063 L 234.090 75.195 200.044 75.096 L 165.998 74.996 165.585 76.072 M190.420 251.465 L 162.689 324.805 191.183 324.905 C 209.591 324.970,219.762 324.869,219.915 324.620 C 220.046 324.408,225.506 308.597,232.049 289.484 C 238.592 270.370,244.060 254.854,244.200 255.003 C 244.402 255.217,255.863 288.845,266.492 320.410 L 268.037 325.000 296.323 325.000 C 312.445 325.000,324.609 324.852,324.609 324.655 C 324.609 324.465,312.456 291.813,297.602 252.096 C 282.748 212.379,270.510 179.487,270.408 179.004 L 270.221 178.125 244.186 178.125 L 218.150 178.125 190.420 251.465 " stroke="none" fill="#0c0c0c" fill-rule="evenodd"></path><path id="path1" d="M66.797 0.623 C 32.537 5.602,5.482 32.822,0.591 67.233 C -0.308 73.560,-0.289 326.416,0.611 332.870 C 5.410 367.276,32.664 394.496,67.233 399.409 C 73.560 400.308,326.416 400.289,332.870 399.389 C 367.276 394.590,394.496 367.336,399.409 332.767 C 400.308 326.440,400.289 73.584,399.389 67.130 C 394.590 32.724,367.336 5.504,332.767 0.591 C 326.885 -0.245,72.560 -0.214,66.797 0.623 M234.683 76.074 C 234.894 76.665,241.239 94.141,248.783 114.909 C 256.328 135.677,262.500 152.771,262.500 152.895 C 262.500 153.019,248.420 153.165,231.210 153.220 L 199.921 153.320 196.887 161.914 C 195.219 166.641,190.774 178.770,187.009 188.867 C 183.244 198.965,170.543 233.726,158.784 266.113 L 137.405 325.000 106.202 325.000 C 89.041 325.000,75.000 324.932,75.000 324.849 C 75.000 324.766,95.147 269.263,119.770 201.509 C 144.394 133.755,164.801 77.573,165.120 76.660 L 165.698 75.000 199.999 75.000 L 234.299 75.000 234.683 76.074 M270.574 179.199 C 271.385 181.141,325.000 324.593,325.000 324.822 C 325.000 324.920,312.124 325.000,296.387 325.000 L 267.773 324.999 256.058 290.394 C 249.615 271.362,244.246 255.729,244.127 255.656 C 244.009 255.582,238.558 271.155,232.014 290.261 L 220.117 324.999 191.309 325.000 C 175.464 325.000,162.500 324.932,162.500 324.849 C 162.500 324.766,174.980 291.696,190.234 251.359 C 205.488 211.022,217.969 177.955,217.969 177.877 C 217.969 177.799,229.667 177.734,243.965 177.734 L 269.962 177.734 270.574 179.199 " stroke="none" fill="#fbfbfb" fill-rule="evenodd"></path><path id="path2" d="" stroke="none" fill="#848484" fill-rule="evenodd"></path><path id="path3" d="" stroke="none" fill="#a7a7a7" fill-rule="evenodd"></path><path id="path4" d="M231.152 178.027 C 238.296 178.087,249.985 178.087,257.129 178.027 C 264.272 177.968,258.428 177.919,244.141 177.919 C 229.854 177.919,224.009 177.968,231.152 178.027 " stroke="none" fill="#747474" fill-rule="evenodd"></path></g></svg>